/* XPM */
static char *f4fddb66d7b04dc0aab3c4e88205cbf8ttja1SarqY7sfg6j[] = {
/* columns rows colors chars-per-pixel */
"148 45 41 1 ",
"  c None",
". c black",
"X c #3A0000",
"o c #3A3A00",
"O c #00003A",
"+ c #3A003A",
"@ c #003939",
"# c #003A3A",
"$ c #460000",
"% c #660000",
"& c #6F0000",
"* c #66003A",
"= c #6F0039",
"- c #464600",
"; c #6F6F00",
": c #000046",
"> c #000066",
", c #00006F",
"< c #3A0066",
"1 c #39006F",
"2 c #00396F",
"3 c #460046",
"4 c #660066",
"5 c #004646",
"6 c #006666",
"7 c #850000",
"8 c #903A00",
"9 c #A16F00",
"0 c #B66600",
"q c #C34600",
"w c #D06F00",
"e c #FF8500",
"r c #000085",
"t c #003A90",
"y c #0039A1",
"u c #004685",
"i c #006FA1",
"p c #0066B6",
"a c #006FD0",
"s c #008585",
"d c #0085FF",
/* pixels */
"                                                                                                                                                    ",
"                                                                                                                                                    ",
"                                                                                                                                                    ",
"                                                                                                                                                    ",
"                                                                                                                                                    ",
"                                                                                                                                                    ",
"                                                                                                                                                    ",
"                                                                                                                                                    ",
"                                                                                                                                                    ",
"                                                                                          Xt                                                        ",
"                                                                                         = 0d                                                       ",
"                                                                                         4 ep                                                       ",
"                                                                                         *  4                                                       ",
"                                                                                         8d ep                                                      ",
"                                                                                         wa  wt                                                     ",
"                                                  8....................#X.......#X.......Oi   e.......................................d             ",
"                                       0.........O                                        :                                          w>             ",
"                                0......d                                                  3             %>    8.d            e.a      8O            ",
"                           X....d                                                         -                   r                        0>           ",
"                      0...t                                                                u            0p    w>             e.y      X#Xp          ",
"                  w...d                                                                3   :                                         7 95%p         ",
"               8..a                                                                                                                  e.2  %d        ",
"            w..d                                                                           -             8>                               w.d       ",
"          %.p                                                                               5                 %>                           e.p      ",
"        %.d                                                                                         w>   wt    q                         X> 8>      ",
"      %.d                                                                                   $       8....O    8p             w.p    +   3  r *      ",
"       Xt                                                                                          Xd     8.......O          q    q2  3      y      ",
"        0.p                                                                                      eO                8.......a  8d   ;.s     19d      ",
"          8.a                                                                         8.....2    0d                        w.......>     X> =       ",
"            X.a                                                                      8>     X.d  0d                                 %6%...O r       ",
"              X.p                                                                   et       e>  wd                                        =        ",
"                8..d                                     0.........O                &         wp wa                                                 ",
"                   X..p                           X.......>        0....d           ,          & ea                                                 ",
"                      %...O                 %.....>                     X...p      ep          waea                                                 ",
"                          8.................>                               X..O   wa           28p                                                 ",
"                                  w.p                                          w..Ood           8d                                                  ",
"                                                                                   <                                                                ",
"                                                                                                                                                    ",
"                                                                                                                                                    ",
"                                                                                                                                                    ",
"                                                                                                                                                    ",
"                                                                                                                                                    ",
"                                                                                                                                                    ",
"                                                                                                                                                    ",
"                                                                                                                                                    "
};
